<?xml version="1.0" encoding="utf-8"?>
<!-- Generator: Adobe Illustrator 21.1.0, SVG Export Plug-In . SVG Version: 6.00 Build 0)  -->
<svg version="1.1" id="Layer_1" xmlns="http://www.w3.org/2000/svg" xmlns:xlink="http://www.w3.org/1999/xlink" x="0px" y="0px"
	 viewBox="0 0 300 111.5" style="enable-background:new 0 0 300 111.5;" xml:space="preserve">
<style type="text/css">
	.st0{fill:#FFFFFF;}
	.st1{fill:#B8D668;}
	.st2{fill:#B2D235;}
	.st3{fill:#85A52B;}
</style>
<g>
	<path class="st0" d="M25.2,111.4V0h51.3v20H47.4v25.2h25v20h-25v26.1h29.1v20H25.2z"/>
</g>
<g>
	<path class="st0" d="M242.1,111.5c-12.5,0-19.1-4.9-24.2-10.9c-8.9-10.4-8.3-30.2-8.3-44.9c0-14.7-0.6-34.5,8.3-44.9
		C223,4.9,229.6,0,242.1,0c9.4,0,16.7,3.1,22.1,8.1c5.9,5.8,9.1,14.4,9.5,24.4h-22.2c-0.2-4.6-0.9-12.9-9.4-12.9
		c-4.1,0-6.1,1.8-7.4,4.3c-2.7,5.1-3,18.7-3,31.9s0.3,26.8,3,31.9c1.3,2.5,3.3,4.3,7.4,4.3c7.4,0,9.4-6.7,9.4-12.7V67.9h-9.2V50.3
		h31.4V78C273.7,99.7,261.2,111.5,242.1,111.5z"/>
</g>
<polygon class="st1" points="81.6,0 114.1,0 124.6,26.8 108.6,70.3 "/>
<polygon class="st2" points="183.4,0 213.8,0 198.6,41.7 "/>
<polygon class="st3" points="188.9,68.5 173.3,111.3 149,42.5 164.2,0 "/>
<polygon class="st2" points="134.2,0 164.2,0 124.2,111.3 108.6,70.3 "/>
</svg>
